<?xml version="1.0" encoding="utf-8"?>
<!-- Generator: Adobe Illustrator 18.1.1, SVG Export Plug-In . SVG Version: 6.00 Build 0)  -->
<svg version="1.1" id="Layer_1" xmlns="http://www.w3.org/2000/svg" xmlns:xlink="http://www.w3.org/1999/xlink" x="0px" y="0px"
	 viewBox="0 0 790.2 338.9" enable-background="new 0 0 790.2 338.9" xml:space="preserve">
<g>
	<polygon fill="#E31F26" points="31.2,268.1 41.7,268.1 41.7,339 31.2,339 31.2,309.1 10.7,309.1 10.7,339 0.5,339 0.5,268.1 
		10.7,268.1 10.7,298.9 31.2,298.9 	"/>
	<rect x="53.7" y="268.1" fill="#E31F26" width="10.8" height="70.9"/>
	<g>
		<path fill="#E31F26" d="M106.6,294.8v-6.3c-0.6-6-3.8-9.3-9.8-9.9c-6.4,0.6-9.9,3.9-10.3,9.9v31.8c0.4,6,3.7,9.3,9.9,9.8
			c6.7-0.1,10.3-3.4,10.6-10v-2.7h-8.9v-9.9h19.2v12.6c-1.4,12.3-8.3,18.9-20.5,19.8c-12.7-0.8-19.5-7.4-20.5-19.8v-31.6
			c0.9-12.4,7.7-19.3,20.5-20.7c12.3,1.4,19.1,8.3,20.5,20.7v6.4H106.6z"/>
		<polygon fill="#E31F26" points="158.1,268.1 168.6,268.1 168.6,339 158.1,339 158.1,309.1 137.6,309.1 137.6,339 127.4,339 
			127.4,268.1 137.6,268.1 137.6,298.9 158.1,298.9 		"/>
		<polygon fill="#E31F26" points="220.3,338.9 179.2,338.9 179.2,268.2 189.5,268.2 189.5,328.8 220.3,328.8 		"/>
		<path fill="#E31F26" d="M262,268.1c-5.4,11.8-10.9,24.4-16.6,37.6c-0.8,1.9-1.6,3.8-2.6,5.9v27.2h-10.8v-27
			c-5.8-13.5-11.6-26.8-17.3-39.9c-0.8-1.8-1.3-3.1-1.5-3.8h12.9c3,8,6.8,17.4,11.4,28.4c4.4-10.9,8.1-20.3,11.1-28.4H259H262z"/>
		<rect x="307.6" y="268.2" fill="#E31F26" width="7.1" height="70.7"/>
		<path fill="#E31F26" d="M377.6,338.7l-0.3-70.5h-6.1c-4.8,7.6-10.2,16-16.2,25.2l-1.8,2.7l-1.8-2.7c-6-9.2-11.4-17.6-16.1-25.2
			h-6.2v70.5h6.5v-58l3.9,6.1c5.6,8.7,10.2,15.9,13.6,21.6c3.4-5.6,7.9-13,13.4-22.2l4-6.6v59.1H377.6z"/>
		<path fill="#E31F26" d="M428.9,287.4c-1.3-11.5-8.1-17.9-20.5-19.2l-18.4,0v70.7h6.7V307h11.9
			C420.8,305.9,427.5,299.5,428.9,287.4 M398.8,300.5h-2.1v-25.5h11.7c7.8,0.8,12.2,5.1,12.9,12.5c-0.7,8-5.1,12.4-12.7,13H398.8z"
			/>
		<path fill="#E31F26" d="M469.9,319.5l0,19.4h6.7v-20.1c0.1-4.7-2.6-9.8-7.9-15l-1.9-1.9l2.2-1.4c5.4-3.4,8.1-7.6,8.3-12.6
			c-1.3-11.8-7.9-18.3-20.3-19.7l-18.3,0v70.7h6.5v-31.7h11.7C464.8,307.8,469.2,312.1,469.9,319.5 M445.3,300.7v-25.5h11.7
			c7.8,0.8,12.1,5.1,12.8,12.4c-0.6,8-5,12.4-12.6,13l-9.8,0H445.3z"/>
		<path fill="#E31F26" d="M506.3,267.7c-11.8,1.3-18.2,7.7-19.1,19.6l0,33.5c1.1,11.5,7.4,17.7,19.4,18.8c11.9-1,18.4-7.2,19.8-19
			l0-33.4C525,275.4,518.5,269,506.3,267.7 M506.7,333.6c-7.9-0.5-12.4-4.8-13.1-12.2l0-34c0.7-7.6,5.1-11.8,12.7-12.6l0.2,0l0.2,0
			c7.6,0.7,12.1,5,12.8,12.4l0,34C518.8,328.8,514.4,333,506.7,333.6"/>
		<path fill="#E31F26" d="M579.7,268.2h-6.8c-1.6,8-15.6,66.6-15.6,66.6s-11.6-49.2-15.5-66.6h-6.5c3.2,13.1,17.1,68.8,17.6,70.7
			h8.9C565.2,325.7,577.2,277.4,579.7,268.2"/>
		<path fill="#E31F26" d="M628.8,339v-52c-1.3-11.7-7.8-18.2-19.9-19.5c-11.8,1.3-18.3,7.7-19.4,19.7l0,51.8h6.6v-24.6h26V339H628.8
			z M596.1,308v-20.6c0.7-7.6,5.1-11.9,12.8-12.7l0.2,0l0.2,0c7.5,0.8,11.9,5.1,12.7,12.5l0,20.8H596.1z"/>
		<path fill="#E31F26" d="M683.2,319.7c-0.3-4.7-2.7-9.5-7-14.1l-1.4-1.4l1.4-1.5c4.4-4.7,6.7-9.8,7-15.1
			c-1.4-11.6-8-18.1-20.3-19.4l-18.7,0v70.7h18.9C675.2,337.9,681.8,331.7,683.2,319.7 M650.6,274.9h12.1
			c7.8,0.8,12.1,5.1,12.7,12.5c-0.5,7.9-4.8,12.4-12.3,13.3l-10.5,0h-2.1V274.9z M662.9,332.6l-10.1,0h-2.1v-25.4H663
			c7.7,0.7,12,5.1,12.5,12.6C674.9,327.8,670.5,332.1,662.9,332.6"/>
		<polygon fill="#E31F26" points="698,268.3 698,338.8 737.2,338.8 737.2,332.4 704.6,332.4 704.6,268.3 		"/>
		<polygon fill="#E31F26" points="789,274.9 789,268.2 750.2,268.2 750.2,338.9 789,338.9 789,332.5 756.6,332.5 756.6,307.3 
			779.4,307.3 779.4,300.9 756.6,300.9 756.6,274.9 		"/>
		<rect x="0" y="211" fill="#E31F26" width="789.6" height="25.6"/>
		<path fill="#E31F26" d="M787,116.8l-5.7,0.7l0.5-1.6c0,0,1.3-4.4-5.7-4.4c-7,0-5.2,2.3-5.2,2.3l-4.2-1.8c0,0-2.3,0.5-3.1,1.8
			c-0.8,1.3-4.7,0.8-4.7,0.8l-4.7-2.1l-0.3-3.1l-2.6-0.5l-1.8-23.7l-4.7,1.6l1,12.5h1.6l0.5,9.9l-2.1,0.8l-0.8-1.6l-1.6-20.3
			l-4.7,0.5l0.3,9.9l1,1l0.5,11.9l-3.9,0.8l-11.7-1.6l-0.5,3.6l-2.9,0.5l-0.5,5.2l-0.3,6.2l-4.9,1.8l-2.6-1h-2.1l1.3-4.2l1.8-2.1
			l-0.8-1.6l-1.8-1.6h-10.9l-1.6-27.5h1l-0.5-14.3l-7.3-0.3l0.5,14.3l3.6,0.3l-0.3,26.8l-8.6,0.3l-2.3-27l1.6-0.5l-0.5-14.3
			l-7.5,0.3l0.5,14.8l3.1-0.3l0.3,27h-12l-0.8-10.7h1.8v-9.9h-5.2v9.4l1.3,0.5l-0.5,10.9l-3.9-0.5v-7h-4.9v-3.4h1.3V96.4h-5.7
			l-0.5,6.8l-2.1-2.1L651,67l-0.5,33.8l-3.9,4.2l-0.5-3.9h-6.5l0.3,4.7h-5.2v-3.4H617v-4.4h-5.2V53.5h-4.9v-8.7h-4.3v-9.6h-3.3
			C596.7,14.9,587.7,0,577,0c-10.7,0-19.7,14.9-22.3,35.2h-3.3v9.6H547v8.7h-4.9v35.9l-1,22.6H537V88.1h-1.8v-1.6h-1.3v-3.4h-2.3
			v-3.4h-3.4v-2.3h-1.6v-2.1h-1.8v-3.6h-4.2v-2.1h-12.5l-4.7,6.5v7h-10.1v-2.6h-23.9v2.3H464l-1.8,2.3l-3.4,0.3l-0.8,2.3l-3.9-0.3
			V118h-10.4v-6h-1.8v-6.8h-2.1v-5.7l-5.3-5.3v-2.7h-3V94l-4.5,4.5v6.4h-22.7V58.7h-3.1v-5.5h-7v-6.5c0,0-3.4-0.8-9.6-0.8
			c-6.2,0-8.1,1.6-8.1,1.6l-0.5,5.7h-6.2v4.9h-3.4v36.1H365v10.4h-5.5v-3.6h-2.3v-26h-2.1l-2.6-2.6h-6l-2,2h-3.2v4.8h-7.8v9.4H332
			v-4.2h-11.7v1.8h-10.7v6h-2.1v11.7h-6.2V88.6h-4.9V87h-6.2v1.6h-4.9v5.7h-7.3v2.9h-4.2V58.5l-1.3-0.5V54l-0.8-5.5l-3.4-2.3
			l-0.5-1.8h-3.6v1.8l-1.8,0.3l-0.8,15.1l-2.3-3.6v-6h-3.9v6l-7,12.5l-1.6,0.3v12.7h-11.7l0.3-3.4l-2.3-0.3V73h-4.7v6.2h-3.1v4.2
			H218l-0.2-17.8l-5.5,6.5l4.3-0.6l0.1,11.9h-5.8v-2.6h-2.3v-8.1h-5.2v7.5h-3.1v3.4h-2.1v2.4c-1.8,1.2-7.1,4.8-9.6,6
			c-2.3,1-7.2,3.4-9.8,4.6h-6.1v-2.1h-7.3v2.1h-4.9v6.5c0,0-12.7-4.4-19-6.2c-6.2-1.8-20.8-4.7-20.8-4.7l-0.3-5.2h-7l-12.2-4.4H89.6
			v2.6c0,0-45.2-8.8-53.5-10.1c-3.4-0.5-10-1.3-16.6-2.1c-1-0.5-2-1-3-1.5C7.7,67,0.7,63.2,0.6,63.1L0,64.3c0,0,7,3.8,15.7,8.3
			c-8.2-0.9-15.5-1.7-15.5-1.7v115.6h789.3l0.3-72.6L787,116.8z M215.6,70.3l1-1.1l0,1L215.6,70.3z M53.5,80.9l5.1,0.8l-0.2,8.4
			c-1.7-0.7-3.4-1.3-5-1.9L53.5,80.9z M53.4,89.6c1.6,0.7,3.3,1.3,5,2l-0.1,6.4c-1.7-0.6-3.3-1.2-4.9-1.9L53.4,89.6z M53.2,97.5
			c1.6,0.6,3.3,1.2,4.9,1.9l0,0.6c-1.6-0.5-3.3-1-4.9-1.5L53.2,97.5z M53.2,99.8c1.7,0.5,3.3,1,4.9,1.5l-0.1,3.2l-4.9-0.5L53.2,99.8
			z M45.8,79.2l5.1,0.8l-0.1,7.1c-1.8-0.7-3.4-1.4-5-2L45.8,79.2z M45.7,86.6c1.6,0.6,3.3,1.3,5,2L50.7,95c-1.7-0.7-3.4-1.3-5-1.9
			L45.7,86.6z M45.7,94.6c1.6,0.6,3.3,1.2,5,1.9l0,1.1c-1.6-0.5-3.3-1-5-1.5L45.7,94.6z M45.7,97.5c1.7,0.5,3.3,1,5,1.5l-0.1,5
			l-4.9-0.8L45.7,97.5z M38.2,78l4.8,0.9L42.9,84c-0.2-0.1-0.5-0.2-0.7-0.3c-1.2-0.5-2.6-1.1-4-1.7L38.2,78z M38.1,83.5
			c1.3,0.6,2.5,1.1,3.6,1.5c0.4,0.2,0.8,0.3,1.2,0.5L42.8,92c-1.8-0.7-3.4-1.3-4.8-1.9L38.1,83.5z M37.9,91.5c1.4,0.6,3,1.2,4.8,1.9
			l0,1.7c-1.6-0.5-3.2-1-4.9-1.5L37.9,91.5z M37.8,95c1.6,0.5,3.2,1,4.9,1.5l-0.1,6.2l-4.9-0.5L37.8,95z M29,76.6l6.2,1.1l0,3
			c-1.9-0.9-4-1.9-6.1-2.9L29,76.6z M29,79.2c2.1,1,4.2,2,6.1,2.9L35,88.9c-1.8-0.8-3.9-1.7-6.1-2.7L29,79.2z M28.9,87.6
			c2.2,1,4.2,1.9,6.1,2.7l0,2.5c-0.8-0.3-1.6-0.5-2.4-0.8c-1.2-0.4-2.4-0.8-3.6-1.1L28.9,87.6z M7.3,99.6l-5.5-0.3l0.1-7.7l5.6,2
			L7.3,99.6z M7.4,92.1l-5.6-2l0.1-6.5c1.6,0.5,3.5,1.1,5.6,1.8L7.4,92.1z M7.6,84c-2.1-0.7-4-1.3-5.6-1.8L2,75.1
			c1.6,0.7,3.5,1.7,5.7,2.7L7.6,84z M7.7,76.4c-2.2-1-4.1-2-5.7-2.7l0-0.9l5.7,1.1L7.7,76.4z M16.5,100.3l-6.2-0.5v-5.3l6.2,2.2
			V100.3z M16.5,95.3l-6.2-2.2v-6.8c1.9,0.6,4,1.3,6.2,2V95.3z M16.5,86.9c-2.2-0.7-4.2-1.4-6.2-2v-5.9c1.9,0.9,4,1.9,6.2,2.9V86.9z
			 M16.5,80.5c-2.1-1-4.2-2-6.2-2.9v-3l6.2,0.9V80.5z M26.1,100.6l-6.3-0.3l0-2.5l6.3,2.3L26.1,100.6z M26.1,98.7l-6.4-2.3l-0.1-7.1
			c2.1,0.7,4.4,1.4,6.6,2.1L26.1,98.7z M26.3,90c-2.3-0.7-4.5-1.4-6.7-2.1l-0.1-4.5c2.3,1.1,4.6,2.1,6.8,3.1L26.3,90z M26.4,85
			c-2.2-1-4.5-2.1-6.8-3.1l-0.1-6.5l2.9,0.6c1.4,0.7,2.8,1.4,4.2,2.1L26.4,85z M28.9,92.2c2,0.6,4,1.3,6,1.9l-0.1,7.4l-0.8-0.1
			l-5.1-1.8L28.9,92.2z M58.9,120.4H50v-2.3l-18.4,0.7l-0.3-7.6c0,0,11.2,1.3,14.8,1.6c3.6,0.3,12.8,1.6,12.8,1.6V120.4z
			 M65.5,105.7l-5.4-0.8l0.1-3.1c1.9,0.6,3.6,1.1,5.3,1.6L65.5,105.7z M65.5,102.1c-1.7-0.5-3.5-1-5.3-1.6l0-0.4
			C62,100.7,63.8,101.4,65.5,102.1L65.5,102.1z M65.5,100.6c-1.7-0.6-3.5-1.3-5.3-2l0.1-6.3c1.8,0.7,3.5,1.4,5.2,2L65.5,100.6z
			 M65.6,92.9c-1.7-0.7-3.4-1.3-5.2-2l0.2-9.5l5.1,1.4L65.6,92.9z M72.2,106.5l-4.9-0.1l0-2.3c1.7,0.5,3.4,1,4.9,1.4L72.2,106.5z
			 M72.3,103.1c-1.5-0.6-3.2-1.2-4.9-1.8l0.1-6.2c1.7,0.7,3.4,1.3,4.9,1.9L72.3,103.1z M72.5,95.6c-1.5-0.6-3.2-1.2-4.9-1.9
			l0.2-10.6l4.9,0.9L72.5,95.6z M78.9,107.1l-4.8-0.5v-0.8C75.9,106.3,77.5,106.8,78.9,107.1L78.9,107.1z M78.9,105.5
			c-1.3-0.5-3-1.1-4.8-1.8v-6.1c1.9,0.7,3.6,1.4,4.9,1.9L78.9,105.5z M79,98.1c-1.3-0.5-3-1.2-4.9-1.9V84l5.1,1.4L79,98.1z
			 M131.5,96.7l2.1,0.5l0.2,3.7l-2.4-0.6L131.5,96.7z M124.4,108.3l-2.7,2.4v-10.3l2.8,0.4L124.4,108.3z M124.6,98.6L124.6,98.6
			l-3.4-0.4l-0.2-3h3.6V98.6z M129.3,109.4H126l0.1-8.7l3.3,0.7L129.3,109.4z M129.5,99.9l-3.5-0.7l0.3-3.5l3.4,0.7L129.5,99.9z
			 M131,109.3l0.1-7.1l2.6,0.9l0.3,6.1L131,109.3z M137.9,109.6l-2.2,0.2v-6.2l2.5,0.6L137.9,109.6z M135.9,101.6l-0.2-4.3l2.8,0.7
			l0.1,4.5L135.9,101.6z M142.7,103.8l-2.6-0.7l0.3-4.9l2.5,0.8L142.7,103.8z M144.4,104.6l0.1-5l2.3,0.8l0.1,5.4L144.4,104.6z
			 M179.7,97.7c2.6-1.3,7.2-3.4,9.4-4.4c3.3-1.5,10.4-6.5,10.4-6.5l-0.2-0.2h1.1V87l-0.4-0.4c0,0-4.1,4.3-9.3,7.8
			c-3.6,2.4-8.5,4.5-11.1,5.6V97.7z M179.7,101.4c2.5-1,7.8-3.2,11.8-5.9c4.2-2.8,7.6-6.1,9-7.4v9.8c-1.6,0.8-4.8,2.2-9.4,3.9
			c-4.2,1.5-8.6,2.8-11.3,3.6V101.4z M184.9,110.4h-1.5c0.5-0.2,1-0.4,1.5-0.6V110.4z M200.5,116.9l-2.6-0.5l0.3-3.4h-2.6v-3.1h-6.5
			v-1.6c0.8-0.3,1.5-0.6,2.3-0.8c3.9-1.4,7.2-3.1,9.1-4.2V116.9z M200.5,101.7L200.5,101.7c-1.7,1-5.3,2.9-9.6,4.5
			c-1.8,0.7-3.6,1.3-5.2,1.9h-0.9v0.3c-1.3,0.5-2.4,0.9-3.4,1.3V107h-1.8v-0.3c2.8-0.8,7.4-2.1,11.8-3.7c4.2-1.5,7.2-2.8,9-3.7
			V101.7z M221,112.2l-4.4-0.1v3.3h-1.4v2.7l-4.3-0.1v-9.4c0,0,0.2-3.9,2.4-5.7c0.6-0.5,1.1-0.8,1.6-1.1l6,8.4V112.2z M221,107.9
			l-4.8-6.7c0.8-0.3,1.2-0.4,1.2-0.4l3.5-0.1V107.9z M577,2.4c9.2,0,16.7,13.5,16.7,30c0,0.5,0,1,0,1.6
			c-0.5-15.9-7.7-28.5-16.7-28.5c-8.9,0-16.2,12.6-16.7,28.5c0-0.5,0-1,0-1.6C560.2,15.9,567.7,2.4,577,2.4"/>
	</g>
</g>
</svg>
