<?xml version="1.0" encoding="utf-8"?>
<!-- Generator: Adobe Illustrator 18.1.1, SVG Export Plug-In . SVG Version: 6.00 Build 0)  -->
<svg version="1.1" id="Layer_1" xmlns="http://www.w3.org/2000/svg" xmlns:xlink="http://www.w3.org/1999/xlink" x="0px" y="0px"
	 viewBox="0 0 790.2 118.4" enable-background="new 0 0 790.2 118.4" xml:space="preserve">
<g>
	<polygon points="31.2,-0.1 41.7,-0.1 41.7,70.8 31.2,70.8 31.2,40.9 10.7,40.9 10.7,70.8 0.5,70.8 0.5,-0.1 10.7,-0.1 10.7,30.7 
		31.2,30.7 	"/>
	<rect x="53.7" y="-0.1" width="10.8" height="70.9"/>
	<g>
		<path d="M106.6,26.6v-6.3c-0.6-6-3.8-9.3-9.8-9.9c-6.4,0.6-9.9,3.9-10.3,9.9V52c0.4,6,3.7,9.3,9.9,9.8c6.7-0.1,10.3-3.4,10.6-10
			v-2.7h-8.9v-9.9h19.2v12.6C115.9,64,109,70.6,96.8,71.5c-12.7-0.8-19.5-7.4-20.5-19.8V20.2C77.2,7.8,84,0.9,96.8-0.5
			c12.3,1.4,19.1,8.3,20.5,20.7v6.4H106.6z"/>
		<polygon points="158.1,-0.1 168.6,-0.1 168.6,70.8 158.1,70.8 158.1,40.9 137.6,40.9 137.6,70.8 127.4,70.8 127.4,-0.1 
			137.6,-0.1 137.6,30.7 158.1,30.7 		"/>
		<polygon points="220.3,70.7 179.2,70.7 179.2,0 189.5,0 189.5,60.6 220.3,60.6 		"/>
		<path d="M262-0.1c-5.4,11.8-10.9,24.4-16.6,37.6c-0.8,1.9-1.6,3.8-2.6,5.9v27.2h-10.8v-27c-5.8-13.5-11.6-26.8-17.3-39.9
			c-0.8-1.8-1.3-3.1-1.5-3.8h12.9c3,8,6.8,17.4,11.4,28.4c4.4-10.9,8.1-20.3,11.1-28.4H259H262z"/>
		<rect x="307.6" y="0" width="7.1" height="70.7"/>
		<path d="M377.6,70.5L377.3,0h-6.1C366.4,7.6,361,16,355,25.2l-1.8,2.7l-1.8-2.7c-6-9.2-11.4-17.6-16.1-25.2h-6.2v70.5h6.5v-58
			l3.9,6.1c5.6,8.7,10.2,15.9,13.6,21.6c3.4-5.6,7.9-13,13.4-22.2l4-6.6v59.1H377.6z"/>
		<path d="M428.9,19.2C427.5,7.7,420.8,1.3,408.4,0l-18.4,0v70.7h6.7V38.8h11.9C420.8,37.7,427.5,31.3,428.9,19.2 M398.8,32.3h-2.1
			V6.7h11.7c7.8,0.8,12.2,5.1,12.9,12.5c-0.7,8-5.1,12.4-12.7,13H398.8z"/>
		<path d="M469.9,51.3l0,19.4h6.7V50.5c0.1-4.7-2.6-9.8-7.9-15l-1.9-1.9l2.2-1.4c5.4-3.4,8.1-7.6,8.3-12.6
			C476.1,7.9,469.5,1.3,457.1,0l-18.3,0v70.7h6.5V39h11.7C464.8,39.6,469.2,43.9,469.9,51.3 M445.3,32.5V7h11.7
			c7.8,0.8,12.1,5.1,12.8,12.4c-0.6,8-5,12.4-12.6,13l-9.8,0H445.3z"/>
		<path d="M506.3-0.5c-11.8,1.3-18.2,7.7-19.1,19.6l0,33.5c1.1,11.5,7.4,17.7,19.4,18.7c11.9-1,18.4-7.2,19.8-19l0-33.4
			C525,7.2,518.5,0.8,506.3-0.5 M506.7,65.4c-7.9-0.5-12.4-4.8-13.1-12.2l0-34c0.7-7.6,5.1-11.8,12.7-12.6l0.2,0l0.2,0
			c7.6,0.7,12.1,5,12.8,12.4l0,34C518.8,60.6,514.4,64.8,506.7,65.4"/>
		<path d="M579.7,0h-6.8c-1.6,8-15.6,66.6-15.6,66.6S545.7,17.4,541.9,0h-6.5c3.2,13.1,17.1,68.8,17.6,70.7h8.9
			C565.2,57.5,577.2,9.3,579.7,0"/>
		<path d="M628.8,70.8v-52C627.5,7,621,0.6,608.9-0.7C597,0.6,590.5,7,589.4,18.9l0,51.8h6.6V46.2h26v24.6H628.8z M596.1,39.8V19.2
			c0.7-7.6,5.1-11.9,12.8-12.7l0.2,0l0.2,0c7.5,0.8,11.9,5.1,12.7,12.5l0,20.8H596.1z"/>
		<path d="M683.2,51.5c-0.3-4.7-2.7-9.5-7-14.1l-1.4-1.4l1.4-1.5c4.4-4.7,6.7-9.8,7-15.1c-1.4-11.6-8-18.1-20.3-19.4l-18.7,0v70.7
			h18.9C675.2,69.8,681.8,63.5,683.2,51.5 M650.6,6.7h12.1c7.8,0.8,12.1,5.1,12.7,12.5c-0.5,7.9-4.8,12.4-12.3,13.3l-10.5,0h-2.1
			V6.7z M662.9,64.5l-10.1,0h-2.1V39.1H663c7.7,0.7,12,5.1,12.5,12.6C674.9,59.6,670.5,63.9,662.9,64.5"/>
		<polygon points="698,0.1 698,70.6 737.2,70.6 737.2,64.2 704.6,64.2 704.6,0.1 		"/>
		<polygon points="789,6.7 789,0 750.2,0 750.2,70.7 789,70.7 789,64.4 756.6,64.4 756.6,39.1 779.4,39.1 779.4,32.7 756.6,32.7 
			756.6,6.7 		"/>
		<rect x="0" y="93.8" width="789.6" height="25.6"/>
	</g>
</g>
</svg>
